<svg width="37" height="37" viewBox="0 0 37 37" fill="none" xmlns="http://www.w3.org/2000/svg">
<path d="M6.56588 25.5816C4.842 22.6756 4.23829 19.2402 4.86809 15.9205C5.4979 12.6009 7.31791 9.62529 9.98636 7.55257C12.6548 5.47984 15.9881 4.45254 19.3604 4.66357C22.7327 4.87459 25.912 6.30943 28.3012 8.69866C30.6904 11.0879 32.1253 14.2671 32.3363 17.6394C32.5474 21.0117 31.5201 24.345 29.4474 27.0135C27.3747 29.6819 24.3991 31.502 21.0794 32.1318C17.7598 32.7616 14.3244 32.1579 11.4183 30.4341L11.4184 30.4339L6.62621 31.8031C6.42794 31.8598 6.21813 31.8623 6.01852 31.8106C5.81892 31.7589 5.63677 31.6547 5.49096 31.5089C5.34516 31.3631 5.241 31.181 5.18927 30.9814C5.13755 30.7818 5.14015 30.572 5.1968 30.3737L6.56599 25.5815L6.56588 25.5816Z" stroke="white" stroke-width="2" stroke-linecap="round" stroke-linejoin="round"/>
<path d="M21.9852 26.5937C20.464 26.5959 18.9574 26.2979 17.5516 25.7167C16.1458 25.1356 14.8685 24.2828 13.7928 23.2072C12.7172 22.1315 11.8644 20.8542 11.2833 19.4484C10.7021 18.0426 10.4041 16.536 10.4063 15.0148C10.4097 13.9441 10.8377 12.9184 11.5964 12.1629C12.355 11.4073 13.3824 10.9835 14.4531 10.9844V10.9844C14.6287 10.9844 14.8013 11.0308 14.9531 11.119C15.105 11.2071 15.2309 11.3338 15.3181 11.4863L17.0078 14.4433C17.1097 14.6217 17.1623 14.8239 17.1601 15.0293C17.1579 15.2347 17.101 15.4358 16.9954 15.6119L15.6384 17.8736C16.3365 19.4229 17.5771 20.6635 19.1264 21.3616V21.3616L21.3881 20.0046C21.5642 19.899 21.7653 19.8421 21.9707 19.8399C22.1761 19.8378 22.3783 19.8903 22.5567 19.9922L25.5137 21.6819C25.6662 21.7691 25.7929 21.895 25.881 22.0469C25.9692 22.1988 26.0156 22.3713 26.0156 22.5469V22.5469C26.0126 23.6164 25.5875 24.6415 24.8327 25.3993C24.078 26.1571 23.0547 26.5863 21.9852 26.5937V26.5937Z" stroke="white" stroke-width="2" stroke-linecap="round" stroke-linejoin="round"/>
</svg>
